<svg xmlns="http://www.w3.org/2000/svg" fill="none" viewBox="0 0 128 128">

    <style>
        circle { fill: #DFC42B; }
        path { fill: #201C3D; }
        @media (prefers-color-scheme: dark) {
        circle { fill: #201C3D; }
        path { fill: #C4C4C4; }

        }
    </style>

    <circle cx="64" cy="64" r="64" />
    <path
        d="M48.2818 90.4468L38.6489 108C27.5356 102.305 18.6526 97.7021 12 94.1915C20.5369 86.117 25.286 80.4415 26.2474 77.1649C26.4012 76.5798 26.4781 75.8972 26.4781 75.117C26.4781 71.4113 24.8822 65.9894 21.6905 58.8511C18.4988 51.7128 16.3646 46.8174 15.2879 44.1649C14.2496 41.4734 13.7304 39.406 13.7304 37.9628C13.7304 36.5195 13.9612 35.2713 14.4226 34.2181C15.4994 31.7996 18.0373 29.5957 22.0366 27.6064C26.0359 25.578 32.1117 23.0426 40.264 20C41.4176 22.7305 42.2636 24.7784 42.802 26.1436C37.6491 27.8599 34.8227 30.0053 34.3228 32.5798C34.2074 33.1259 34.1498 33.711 34.1498 34.3351C34.1498 36.5585 34.8804 39.1915 36.3417 42.234C49.9161 28.7376 57.3378 21.3262 58.6068 20C62.0292 22.3014 64.9325 24.5053 67.3167 26.6117C69.7393 28.6791 72.6426 30.5709 76.0266 32.2872L87.563 20C92.1775 22.5355 96.8112 25.0709 101.464 27.6064C106.117 30.1028 110.962 32.2482 116 34.0426C109.809 38.3333 106.54 45.6082 106.194 55.867L105.56 77.633C105.56 78.0621 105.56 78.4911 105.56 78.9202C105.56 85.2394 107.771 89.0816 112.193 90.4468L103.022 108C97.4457 105.933 93.5811 102.734 91.4276 98.4043C89.3126 94.0355 88.2551 88.0089 88.2551 80.3245C88.2551 79.7784 88.2551 79.2323 88.2551 78.6862L88.3705 63.9415C88.3705 60.3918 89.005 57.2908 90.274 54.6383C91.543 51.9858 93.1965 49.3138 95.2346 46.6223C87.5053 40.8883 81.7179 37.7872 77.8724 37.3191C76.4112 39.5426 75.6613 42.1755 75.6229 45.2181C75.6229 48.2606 75.5459 51.8103 75.3921 55.867L74.7576 77.633C74.7576 78.0621 74.7576 78.4911 74.7576 78.9202C74.7576 85.9805 76.5842 90.1152 80.2374 91.3245L66.7399 108C64.6633 105.348 62.3176 102.832 59.7027 100.452C57.0878 98.0727 54.6267 95.8883 52.3195 93.8989C53.4731 92.5337 54.6075 90.3883 55.7227 87.4628C56.8379 84.5372 57.4147 81.6117 57.4531 78.6862L59.472 42.4681C56.1265 39.9326 53.5308 38.6649 51.685 38.6649C51.2235 38.6649 50.8005 38.7429 50.416 38.8989C48.6086 39.7181 44.9362 42.8387 39.3988 48.2606L40.1486 49.6064C43.0327 55.0674 44.4748 59.5922 44.4748 63.1809C44.4748 64.156 44.3594 65.0727 44.1287 65.9309C43.0904 69.8706 39.4372 75.9752 33.1692 84.2447C36.7839 86.8972 41.8214 88.9645 48.2818 90.4468Z"
    />

</svg>