<svg width="24" height="24" viewBox="0 0 24 24" fill="none" xmlns="http://www.w3.org/2000/svg">
<path d="M22 9V7H21V5H20V4H19V3H17V2H15V1H9V2H7V3H5V4H4V5H3V7H2V9H1V16H2V17H3V19H4V20H5V21H7V22H9V23H15V22H17V21H19V20H20V19H21V17H22V15H23V9H22ZM21 10V14H18V10H21ZM16 4H17V5H19V7H20V8H17V5H16V4ZM14 18V20H13V21H11V20H10V18H9V16H15V18H14ZM16 10V14H8V10H16ZM9 6H10V4H11V3H13V4H14V6H15V8H9V6ZM4 7H5V5H7V4H8V5H7V8H4V7ZM3 14V10H6V14H3ZM5 19V17H4V16H7V19H8V20H7V19H5ZM19 17V19H17V20H16V19H17V16H20V17H19Z" fill="black"/>
</svg>
